<mxfile host="app.diagrams.net" modified="2022-01-02T18:08:32.371Z" agent="5.0 (Windows NT 10.0; Win64; x64) AppleWebKit/537.36 (KHTML, like Gecko) Chrome/96.0.4664.110 Safari/537.36 Edg/96.0.1054.57" etag="vSqT-f8ZL8kc5KzkWJws" version="16.1.2" type="github">
  <diagram id="62DpDufi0AiV2cNl2U4P" name="Page-1">
    <mxGraphModel dx="1422" dy="794" grid="1" gridSize="10" guides="1" tooltips="1" connect="1" arrows="1" fold="1" page="1" pageScale="1" pageWidth="850" pageHeight="1100" math="0" shadow="0">
      <root>
        <mxCell id="0" />
        <mxCell id="1" parent="0" />
        <mxCell id="4awNCWXmjsOxldeB0e2U-2" value="Company" style="swimlane;fontStyle=1;align=center;verticalAlign=top;childLayout=stackLayout;horizontal=1;startSize=26;horizontalStack=0;resizeParent=1;resizeParentMax=0;resizeLast=0;collapsible=1;marginBottom=0;" vertex="1" parent="1">
          <mxGeometry x="310" y="41" width="180" height="120" as="geometry" />
        </mxCell>
        <mxCell id="4awNCWXmjsOxldeB0e2U-3" value="+ name:String&#xa;&#xa;# registrationNumber:Number&#xa;&#xa;+ foundingDate:Date" style="text;strokeColor=none;fillColor=none;align=left;verticalAlign=top;spacingLeft=4;spacingRight=4;overflow=hidden;rotatable=0;points=[[0,0.5],[1,0.5]];portConstraint=eastwest;" vertex="1" parent="4awNCWXmjsOxldeB0e2U-2">
          <mxGeometry y="26" width="180" height="94" as="geometry" />
        </mxCell>
        <mxCell id="4awNCWXmjsOxldeB0e2U-6" value="" style="endArrow=open;html=1;endSize=12;startArrow=diamondThin;startSize=14;startFill=1;edgeStyle=orthogonalEdgeStyle;align=left;verticalAlign=bottom;rounded=0;" edge="1" parent="1">
          <mxGeometry x="-1" y="3" relative="1" as="geometry">
            <mxPoint x="310" y="84" as="sourcePoint" />
            <mxPoint x="231" y="220" as="targetPoint" />
          </mxGeometry>
        </mxCell>
        <mxCell id="4awNCWXmjsOxldeB0e2U-7" value="*" style="text;html=1;align=center;verticalAlign=middle;resizable=0;points=[];autosize=1;strokeColor=none;fillColor=none;" vertex="1" parent="1">
          <mxGeometry x="210" y="190" width="20" height="20" as="geometry" />
        </mxCell>
        <mxCell id="4awNCWXmjsOxldeB0e2U-9" value="&amp;lt;&amp;lt;has&amp;gt;&amp;gt;" style="text;html=1;align=center;verticalAlign=middle;resizable=0;points=[];autosize=1;strokeColor=none;fillColor=none;rotation=270;" vertex="1" parent="1">
          <mxGeometry x="190" y="130" width="60" height="20" as="geometry" />
        </mxCell>
        <mxCell id="4awNCWXmjsOxldeB0e2U-10" value="Department" style="swimlane;fontStyle=0;childLayout=stackLayout;horizontal=1;startSize=26;fillColor=none;horizontalStack=0;resizeParent=1;resizeParentMax=0;resizeLast=0;collapsible=1;marginBottom=0;" vertex="1" parent="1">
          <mxGeometry x="165" y="220" width="140" height="78" as="geometry" />
        </mxCell>
        <mxCell id="4awNCWXmjsOxldeB0e2U-11" value="+ name: String" style="text;strokeColor=none;fillColor=none;align=left;verticalAlign=top;spacingLeft=4;spacingRight=4;overflow=hidden;rotatable=0;points=[[0,0.5],[1,0.5]];portConstraint=eastwest;" vertex="1" parent="4awNCWXmjsOxldeB0e2U-10">
          <mxGeometry y="26" width="140" height="26" as="geometry" />
        </mxCell>
        <mxCell id="4awNCWXmjsOxldeB0e2U-12" value="- code: Number" style="text;strokeColor=none;fillColor=none;align=left;verticalAlign=top;spacingLeft=4;spacingRight=4;overflow=hidden;rotatable=0;points=[[0,0.5],[1,0.5]];portConstraint=eastwest;" vertex="1" parent="4awNCWXmjsOxldeB0e2U-10">
          <mxGeometry y="52" width="140" height="26" as="geometry" />
        </mxCell>
        <mxCell id="4awNCWXmjsOxldeB0e2U-16" value="" style="endArrow=open;html=1;endSize=12;startArrow=diamondThin;startSize=14;startFill=0;edgeStyle=orthogonalEdgeStyle;rounded=0;" edge="1" parent="1">
          <mxGeometry y="22" relative="1" as="geometry">
            <mxPoint x="228" y="300" as="sourcePoint" />
            <mxPoint x="228" y="520" as="targetPoint" />
            <Array as="points">
              <mxPoint x="228" y="410" />
              <mxPoint x="228" y="410" />
            </Array>
            <mxPoint as="offset" />
          </mxGeometry>
        </mxCell>
        <mxCell id="4awNCWXmjsOxldeB0e2U-17" value="1" style="edgeLabel;resizable=0;html=1;align=left;verticalAlign=top;" connectable="0" vertex="1" parent="4awNCWXmjsOxldeB0e2U-16">
          <mxGeometry x="-1" relative="1" as="geometry">
            <mxPoint x="5" as="offset" />
          </mxGeometry>
        </mxCell>
        <mxCell id="4awNCWXmjsOxldeB0e2U-18" value="0..*" style="edgeLabel;resizable=0;html=1;align=right;verticalAlign=top;" connectable="0" vertex="1" parent="4awNCWXmjsOxldeB0e2U-16">
          <mxGeometry x="1" relative="1" as="geometry">
            <mxPoint x="-7" y="-20" as="offset" />
          </mxGeometry>
        </mxCell>
        <mxCell id="4awNCWXmjsOxldeB0e2U-19" value="&amp;lt;&amp;lt;has&amp;gt;&amp;gt;" style="text;html=1;align=center;verticalAlign=middle;resizable=0;points=[];autosize=1;strokeColor=none;fillColor=none;rotation=270;" vertex="1" parent="1">
          <mxGeometry x="190" y="400" width="60" height="20" as="geometry" />
        </mxCell>
        <mxCell id="4awNCWXmjsOxldeB0e2U-20" value="&lt;&lt;Entity&gt;&gt;&#xa;Employee" style="swimlane;fontStyle=0;childLayout=stackLayout;horizontal=1;startSize=26;fillColor=none;horizontalStack=0;resizeParent=1;resizeParentMax=0;resizeLast=0;collapsible=1;marginBottom=0;" vertex="1" parent="1">
          <mxGeometry x="135" y="520" width="190" height="136" as="geometry" />
        </mxCell>
        <mxCell id="4awNCWXmjsOxldeB0e2U-21" value="+ name: String" style="text;strokeColor=none;fillColor=none;align=left;verticalAlign=top;spacingLeft=4;spacingRight=4;overflow=hidden;rotatable=0;points=[[0,0.5],[1,0.5]];portConstraint=eastwest;" vertex="1" parent="4awNCWXmjsOxldeB0e2U-20">
          <mxGeometry y="26" width="190" height="26" as="geometry" />
        </mxCell>
        <mxCell id="4awNCWXmjsOxldeB0e2U-22" value="+ designation: Designation" style="text;strokeColor=none;fillColor=none;align=left;verticalAlign=top;spacingLeft=4;spacingRight=4;overflow=hidden;rotatable=0;points=[[0,0.5],[1,0.5]];portConstraint=eastwest;" vertex="1" parent="4awNCWXmjsOxldeB0e2U-20">
          <mxGeometry y="52" width="190" height="26" as="geometry" />
        </mxCell>
        <mxCell id="4awNCWXmjsOxldeB0e2U-23" value="- joiningDate: Date&#xa;" style="text;strokeColor=none;fillColor=none;align=left;verticalAlign=top;spacingLeft=4;spacingRight=4;overflow=hidden;rotatable=0;points=[[0,0.5],[1,0.5]];portConstraint=eastwest;" vertex="1" parent="4awNCWXmjsOxldeB0e2U-20">
          <mxGeometry y="78" width="190" height="32" as="geometry" />
        </mxCell>
        <mxCell id="4awNCWXmjsOxldeB0e2U-25" value="- code: Number" style="text;strokeColor=none;fillColor=none;align=left;verticalAlign=top;spacingLeft=4;spacingRight=4;overflow=hidden;rotatable=0;points=[[0,0.5],[1,0.5]];portConstraint=eastwest;" vertex="1" parent="4awNCWXmjsOxldeB0e2U-20">
          <mxGeometry y="110" width="190" height="26" as="geometry" />
        </mxCell>
      </root>
    </mxGraphModel>
  </diagram>
</mxfile>
